<svg width="1024" height="1024" viewBox="0 0 1024 1024" fill="none" xmlns="http://www.w3.org/2000/svg">
<path d="M129.748 107C200.301 107 257.496 164.195 257.496 234.748V257.021H295.823C320.079 257.021 342.896 263.191 362.787 274.045C381.15 218.136 433.771 177.765 495.823 177.765H670.21C728.838 177.765 781.257 214.297 801.553 269.3L1019.75 860.614C1021.92 866.501 1022.61 872.572 1022.03 878.422C1022.02 878.495 1022.01 878.568 1022 878.641C1022 878.673 1022 878.705 1022 878.737H1022C1019.9 898.801 1002.97 914.473 982.346 914.541L42.1318 917.63C20.0409 917.702 2.07375 899.853 2.00098 877.762C1.99907 877.182 2.01263 876.605 2.03516 876.031C2.01462 875.51 2 874.987 2 874.461V234.748C2.00048 164.195 59.1952 107 129.748 107ZM129.748 187C103.378 187 82.0005 208.378 82 234.748V837.498L177.496 837.184V234.748C177.496 208.378 156.118 187 129.748 187ZM257.496 836.921L355.823 836.599V397.021L355.818 396.246C355.403 363.466 328.701 337.021 295.823 337.021H257.496V836.921ZM495.823 257.765C462.687 257.765 435.824 284.628 435.823 317.765V836.336L525.659 836.04V257.765H495.823ZM605.659 835.777L741.068 835.333L605.659 451.426V835.777ZM825.8 835.055L924.921 834.729L726.5 296.994C717.802 273.422 695.336 257.765 670.21 257.765H622.183L825.8 835.055Z" fill="#226081"/>
</svg>
