<svg width="1024" height="1024" viewBox="0 0 1024 1024" fill="none" xmlns="http://www.w3.org/2000/svg">
<path fill-rule="evenodd" clip-rule="evenodd" d="M211.503 93C283.578 93.0001 342.006 151.429 342.006 223.504V247.785H385.932C407.404 247.785 427.746 252.622 445.932 261.261V206.013C445.932 183.922 463.841 166.013 485.932 166.013H590.24C649.671 166.013 702.625 203.536 722.325 259.606L936.996 870.627C939.138 874.488 940.661 878.738 941.429 883.245L943.09 887.972H941.946C941.983 888.708 942.003 889.451 941.999 890.197C941.893 912.288 923.899 930.11 901.808 930.005L120.81 926.274C98.7184 926.169 80.8954 908.174 81.001 886.083C81.0028 885.693 81.0105 885.305 81.0234 884.918C81.0079 884.467 81 884.015 81 883.561V223.504C81.0002 151.429 139.428 93.0002 211.503 93ZM710.054 849.087L844.86 849.731L646.849 286.124C638.406 262.094 615.711 246.013 590.24 246.013H538.867L710.054 849.087ZM525.932 848.208L626.78 848.689L525.932 493.408V848.208ZM342.006 847.329L445.932 847.825V387.785C445.931 354.648 419.068 327.785 385.932 327.785H342.006V847.329ZM211.503 173.001C183.611 173.001 161 195.612 161 223.504V846.464L262.006 846.946V223.504C262.006 195.612 239.395 173.001 211.503 173.001Z" fill="#226081"/>
</svg>
